PathFileType        4      (X/Y/Z)      C:\Users\pc\Desktop\IMUTRC\Sujet_07\Sujet_07_velo_100.trc         
DataRate	CameraRate	NumFrames	NumMarkers	Units	OrigDataRate	OrigDataStartFrame	OrigNumFrames
60.0	60.0	4	64	mm	60.0	117	933
Frame#	Time	pHipOrigin			pRightASI			pLeftASI			pRightCSI			pLeftCSI			pRightIschialTub			pLeftIschialTub			pSacrum			pL5SpinalProcess			pL3SpinalProcess			pT12SpinalProcess			pIJ			pT4SpinalProcess			pT8SpinalProcess			pPX			pC7SpinalProcess			pTopOfHead			pRightAuricularis			pLeftAuricularis			pBackOfHead			pRightAcromion			pLeftAcromion			pRightArmLatEpicondyle			pRightArmMedEpicondyle			pLeftArmLatEpicondyle			pLeftArmMedEpicondyle			pRightUlnarStyloid			pRightRadialStyloid			pRightOlecranon			pLeftUlnarStyloid			pLeftRadialStyloid			pLeftOlecranon			pRightTopOfHand			pRightPinky			pRightBallHand			pLeftTopOfHand			pLeftPinky			pLeftBallHand			pRightGreaterTrochanter			pRightKneeLatEpicondyle			pRightKneeMedEpicondyle			pRightPatella			pLeftGreaterTrochanter			pLeftKneeLatEpicondyle			pLeftKneeMedEpicondyle			pLeftPatella			pRightTibialTub			pRightLatMalleolus			pRightMedMalleolus			pLeftTibialTub			pLeftLatMalleolus			pLeftMedMalleolus			pRightHeelFoot			pRightFirstMetatarsal			pRightFifthMetatarsal			pRightPivotFoot			pRightHeelCenter			pRightToe			pLeftHeelFoot			pLeftFirstMetatarsal			pLeftFifthMetatarsal			pLeftPivotFoot			pLeftHeelCenter			pLeftToe			
		X1	Y1	Z1	X2	Y2	Z2	X3	Y3	Z3	X4	Y4	Z4	X5	Y5	Z5	X6	Y6	Z6	X7	Y7	Z7	X8	Y8	Z8	X9	Y9	Z9	X10	Y10	Z10	X11	Y11	Z11	X12	Y12	Z12	X13	Y13	Z13	X14	Y14	Z14	X15	Y15	Z15	X16	Y16	Z16	X17	Y17	Z17	X18	Y18	Z18	X19	Y19	Z19	X20	Y20	Z20	X21	Y21	Z21	X22	Y22	Z22	X23	Y23	Z23	X24	Y24	Z24	X25	Y25	Z25	X26	Y26	Z26	X27	Y27	Z27	X28	Y28	Z28	X29	Y29	Z29	X30	Y30	Z30	X31	Y31	Z31	X32	Y32	Z32	X33	Y33	Z33	X34	Y34	Z34	X35	Y35	Z35	X36	Y36	Z36	X37	Y37	Z37	X38	Y38	Z38	X39	Y39	Z39	X40	Y40	Z40	X41	Y41	Z41	X42	Y42	Z42	X43	Y43	Z43	X44	Y44	Z44	X45	Y45	Z45	X46	Y46	Z46	X47	Y47	Z47	X48	Y48	Z48	X49	Y49	Z49	X50	Y50	Z50	X51	Y51	Z51	X52	Y52	Z52	X53	Y53	Z53	X54	Y54	Z54	X55	Y55	Z55	X56	Y56	Z56	X57	Y57	Z57	X58	Y58	Z58	X59	Y59	Z59	X60	Y60	Z60	X61	Y61	Z61	X62	Y62	Z62	X63	Y63	Z63	X64	Y64	Z64	
117	1.933	0.0	1249.97763	7.653905517926474E-14	131.85279081671598	1307.67576	123.45662718569687	79.49844056916317	1323.78966	-155.51715818828546	114.74413487403662	1392.18088	105.8618685276328	71.62870447920102	1405.47298	-123.61901543831257	-66.0848957004799	1216.56173	70.05637696612138	-87.64261089789771	1223.17065	-44.68406501685131	-53.30383403646742	1299.13614	12.869348789380895	27.108195426767605	1379.7056	1.7601882193323037	118.62667721809504	1461.31467	-13.140332074814015	205.18271507764607	1532.45342	-28.505067349411725	466.2650847538457	1487.45334	-79.87065658906954	385.6560284496144	1622.00805	-63.816275519960485	299.3220603065767	1590.07729	-46.60843627718636	350.13631381247086	1438.81463	-56.799365098080045	441.68464246434314	1641.09224	-72.19714167113658	711.0278818402048	1622.52785	-125.3956969453151	623.9942130339725	1593.34463	-39.9956206037984	597.4096018357368	1628.54271	-177.95996330898953	606.7909358385015	1665.82001	-94.25823044455139	458.2092548958221	1582.94857	115.86497002215773	399.46643668710254	1619.55755	-252.88542426055784	480.1192843000332	1301.1411	103.90584589873606	446.80145111840557	1299.06189	48.7425257674194	405.14057249138807	1317.77479	-265.3865957626262	369.53426013178284	1310.86884	-212.0314936856221	561.2913627939631	1056.8337	52.420761791280405	610.2841594686353	1079.85355	52.06784874585666	438.6254513584151	1292.67574	79.09191275439386	454.9757670051774	1060.39806	-254.2777446655869	504.2082384496143	1077.40305	-269.1547265895357	362.94067099150976	1310.27478	-232.9873622904348	745.8116576786593	1014.72966	156.9814560233948	669.6210322895964	995.86824	103.30357025769925	618.6906870535886	1037.82376	58.89349585348817	597.0667578489382	997.13062	-405.039840104785	540.5439947382988	987.47713	-329.1197826129776	507.54254897041324	1035.89307	-275.3754618197709	39.08910816077449	1216.48747	171.8505986429835	287.90584310579925	850.39766	136.38317194480192	287.67113119381474	850.47192	50.502404901500704	325.56061202072425	880.17495	90.47015903688659	-14.272042196356537	1234.90335	-176.81513778814352	315.38418015263596	945.22458	-244.92422392782157	340.69780855961176	944.63052	-162.82787445262235	356.4985406911717	983.39297	-209.35398530127037	316.4198451819179	796.33815	97.54005162183991	33.20734057582115	500.79304	160.65193893843434	34.18807439313222	493.21876	95.53729813815053	375.91488354276026	904.97698	-213.57809761739856	223.40135101855466	521.43664	-247.783810443666	235.20833978619694	516.6099	-183.4319748736174	-49.33783140226441	458.39196	127.48541072398926	81.3269029017236	352.57493	106.11833215199401	77.0514690577868	360.37198	185.10790079409205	96.81269642446921	342.40164	146.87055097507763	-14.880468126605443	437.00578	131.51650683568997	167.35965508830583	283.96094	156.5610742498512	183.3872418733945	439.75331	-211.89324038464204	352.4206125636809	427.12953	-214.02350659484205	333.8169635826548	434.33251	-290.95966135352796	365.20200655089866	429.35726	-256.8051303722586	223.00692937628074	442.20381	-221.2590121196428	454.7363341731374	422.22853	-279.11061483549366	
118	1.95	0.0	1249.97763	7.653905517926474E-14	130.26425423965773	1309.23517	124.42587324684337	81.04451819759362	1322.75005	-155.2247431931726	112.91097619912114	1393.51751	105.91817249092207	72.42297709785718	1404.65615	-124.10363596888583	-66.75516989130719	1216.85876	69.58364591963634	-87.03132246518169	1222.42808	-45.44582764039462	-53.63994456704066	1298.98763	11.817849305292688	26.687880942679392	1379.77986	1.0030542609301838	118.13939221320788	1461.53744	-13.335929688583018	204.71993298467603	1532.82471	-28.000545251554506	466.56797000581946	1487.89888	-75.4942692343514	385.56116159884374	1622.45359	-61.127201314471776	298.9925153114639	1590.44858	-44.99804760227087	350.18729748738633	1439.18592	-53.76885141339028	441.6785982322288	1641.61205	-68.7708127540216	711.2465631386635	1624.38429	-120.72494406491093	624.2871493324315	1594.60701	-35.453481156110186	597.6382270877106	1629.65658	-173.45495386130133	606.7523816112741	1666.93388	-89.73599256414711	456.40718198879216	1583.61689	119.28329185607694	401.1205208974784	1620.15161	-249.95830215292634	479.6710748257193	1301.95793	105.27622748068151	446.5289290303226	1300.02723	49.957107870163746	406.3398766919897	1318.44311	-263.75097157179886	370.51346380669827	1311.31438	-210.6087042015339	561.7242993661342	1058.24459	52.41347365182535	610.6899099943214	1081.41296	51.959128220170534	438.2786779305862	1293.49257	80.43512195010828	455.78727305654945	1060.99212	-254.49519437721315	504.95543711475545	1077.99711	-269.40929264090784	364.0113530991413	1310.79458	-231.42599809960748	746.6530042508305	1015.99204	156.26678101362052	670.2495578152824	997.27913	102.80899211335696	619.1706925792747	1039.30892	58.656161895086036	597.3193697094831	998.24448	-405.9229366818433	541.0909721245298	988.29397	-329.91867523652087	508.2996915890694	1036.48713	-275.7957713038591	40.387899217033805	1218.64094	171.82874654512628	310.85190145156105	868.59077	133.7682130565026	309.9170734882043	868.73928	47.91196258537253	346.2233516866834	900.67004	87.65160411187657	-14.190502717155468	1232.0073	-176.51082830894248	298.0150536092805	922.13047	-237.11727427163675	323.0243638768012	921.75919	-154.9393903172364	341.2324181159927	958.59094	-202.21926536648604	335.93692379650486	813.78868	95.5177198460593	38.82406319228733	533.7634	165.18092999469366	38.671749386055126	525.44655	100.09808524578204	360.88878172080535	883.81357	-206.56204582206936	226.58837812618617	494.40688	-249.88806331918303	237.99957398191134	488.83757	-185.59325431641844	-46.42546089342972	494.70391	133.28263703222237	78.56747841763539	382.79776	109.41265555808432	75.98663720212906	390.44629	188.43740366960913	94.1745972336419	371.73338	149.80619280899683	-12.959909720515121	471.68407	136.65536209743803	162.21351168710262	309.65406	158.0486960837704	186.21825688316878	412.05524	-214.7175022185612	355.24558834134075	399.28294	-213.42144817190035	338.126375416574	406.18889	-290.7010016006146	368.8457678591318	401.36215	-255.987590088772	225.99108305119626	414.43148	-223.30889790218976	458.7035962443689	394.15917	-276.4771343098076	
119	1.967	0.0	1249.97763	7.653905517926474E-14	127.87149109042835	1310.9431	126.04550059178717	83.29800001685136	1321.63619	-154.52390819805976	110.55072804500458	1395.00266	106.44188221232258	73.83315315411652	1403.76506	-124.31841254594408	-67.73702938028255	1217.23005	68.75953644043528	-86.09581432572658	1221.6855	-46.62061526882508	-53.956157190583966	1298.91337	10.434845635264347	26.101819365621118	1379.92838	0.23596268875905857	117.56788959455173	1461.90873	-13.237158116411894	204.22731403116106	1533.27025	-26.99878419529518	466.87546526268034	1488.41868	-70.08626664232096	385.5279413202443	1622.9734	-57.80232210409589	298.7345695022911	1590.96838	-42.91759235518428	350.2256590742189	1439.70572	-49.973915630843265	441.59562586554637	1642.13185	-64.61720039930346	711.4254449628085	1626.09221	-115.3911964728804	624.6689045892923	1595.79513	-30.17410065704975	597.8542352516015	1630.69618	-168.18553097600994	606.6368942494789	1668.04774	-84.48646258588572	454.2609914679933	1584.2852	123.44614288082343	402.77194429379443	1620.59715	-246.43249138015364	478.7799848257193	1302.77476	106.81964063479805	445.9149761232927	1301.21536	51.31754549859422	407.11354245987525	1318.88866	-261.67513998985345	371.22281352809887	1311.68567	-208.56999395933443	561.7786527988503	1059.65549	52.616350744795405	610.6057060408064	1083.04662	52.25349374585662	437.52615897707125	1294.45792	81.88704301125475	456.27455806143666	1061.43767	-254.29959676344416	505.4798521196427	1078.59117	-269.2780060736239	364.84932991351184	1311.24013	-229.31303651766208	746.9029602973155	1017.40293	155.9823644414494	670.4252538617675	998.76428	102.65319763415596	619.1607486257598	1040.86832	58.82190532780209	597.5421447094832	999.35834	-406.3087943004994	541.4052392174999	989.1108	-330.165961808692	508.7326231612405	1037.08119	-275.80305078306014	40.74657578920494	1220.94293	171.95008049864126	331.8434671688924	887.97199	131.56823470366373	330.4757112936186	888.34328	45.71927737198874	364.95876977069713	922.27899	85.34948808932006	-13.426080619298247	1229.77958	-176.49820622085957	278.48393367938337	899.40766	-229.87260222433372	302.71888155578586	898.59082	-147.54158326504628	323.673027907496	933.41762	-195.12238937544237	354.22678822026455	833.31842	93.98730540056107	47.96393576746638	564.65454	168.65718631977816	47.20298934257799	555.44661	103.73742418952271	342.64916836796647	862.72442	-199.7721487845406	223.80976601855465	468.93654	-248.4912059742392	235.11952082779482	462.99593	-184.16921592498957	-38.88408250907796	527.15447	137.8938865114234	82.66335392158291	411.83247	112.12039108377041	81.40848480882096	419.481	191.22472814392304	98.54760983055952	400.32255	152.3309528089968	-5.950239480505616	503.24354	140.70239709743802	165.05305508341863	336.16401	159.51662265105438	182.28670424496403	386.73341	-212.95735329655912	351.0660301872242	371.95616	-209.74660109578164	334.96118674654565	378.11953	-287.29795400858416	365.19062470990235	373.29279	-252.18145644536938	222.1682472784235	388.51559	-221.14301211475558	455.19164414651163	364.75317	-271.73089484257076	
120	1.983	0.0	1249.97763	7.653905517926474E-14	125.10016346199788	1312.87379	127.87528084864809	86.00164684099626	1320.44807	-153.56318186320095	107.74759936520194	1396.56207	107.13862350589423	75.60200578254698	1402.87397	-124.4118551694874	-68.93900305519804	1217.60133	67.72259591474919	-85.01179984652552	1220.79441	-48.05264342294163	-54.42816929332833	1298.76486	8.876154579005016	25.580060174793836	1380.07689	-0.49400388341206536	117.02356802238062	1462.20576	-13.036945497755742	203.7247374638771	1533.7158	-25.83127604606579	467.0888176125113	1489.087	-64.2181637521424	385.3733734278758	1623.56746	-54.11876266129484	298.3552860793494	1591.48819	-40.478474196180585	350.1698677540216	1440.29978	-45.71886222964008	441.5199466383191	1642.72591	-60.030660132668245	711.5744862661543	1627.80014	-109.56022358270191	624.9836929856083	1597.0575	-24.3331701531023	598.0032715549474	1631.66153	-162.3545494255774	606.5187510736239	1669.1616	-78.6382526027371	451.85490094719427	1584.95352	128.059153910457	404.49496321579653	1620.96844	-242.43662769546384	477.6488827327492	1303.74011	108.4817269283697	445.12532716977773	1302.62625	52.83377760622573	407.76586561399176	1319.40846	-259.2406368357369	371.7465145892453	1312.05696	-206.20975080521788	561.4544417523653	1061.2149	53.029380749682566	610.2072349943213	1084.75455	52.79514584371385	436.5707579305862	1295.49752	83.39332616537132	456.6133330663238	1061.95747	-253.84677228424312	505.75432473829875	1079.11097	-268.8623065944229	365.4373420211434	1311.68567	-226.91566336354552	746.8386492508305	1018.88808	155.9452344414494	670.2495578152824	1000.32369	102.80899211335696	618.8464901930437	1042.50199	59.069196899973214	597.5792697094831	1000.39795	-406.37309668673043	541.5709776502158	989.85338	-330.156009194923	509.01703607315756	1037.67525	-275.5531083968292	40.672320789204946	1223.31917	172.07869393135726	351.31346682996434	908.91263	129.77596606733817	349.65134176875046	909.43243	43.842791121894194	382.19980418468253	945.29883	83.55650050925385	-12.154461949269916	1227.92314	-176.6214943652018	256.5979032042515	877.50168	-223.30156546540454	279.67990188982674	875.79375	-140.60725992905878	303.6274455864807	908.6156	-188.17474232813942	371.92527077859216	854.55609	92.88715439266599	59.97123440867906	593.68925	171.47383501154505	58.86884850458962	583.66448	106.69992340697571	321.8219218561238	841.48676	-193.10429964426754	215.93670446812212	444.43154	-244.80518335777302	227.34790032384728	438.41668	-180.51037435500842	-27.230836774895224	557.08027	141.6208128267336	92.67441492947799	440.34738	114.38472478042448	92.28540530080426	447.84739	193.47448922192092	108.77149688493961	428.46616	154.37518097996477	5.391417295275019	532.72379	144.07793131977817	174.5894308540014	363.56505	160.82093529633622	172.64940507098817	363.56505	-208.14628147949134	341.02759049244935	344.85214	-203.79519351571545	325.365636237711	350.05017	-281.5195730006891	355.38225315458266	345.14917	-246.18297857204223	212.5853101974177	364.30763	-216.12905820471775	445.279162070393	334.0848	-265.1065522576174	
